# xmcd
#
# Track frame offsets:
#	150
#	22380
#	43786
#	65863
#
# Disc length: 1288 seconds
#
# Revision: 1
# Processed by: cddbd v1.4PL0 Copyright (c) Steve Scherf et al.
# Submitted via: audiograbber 1.81.02
#
DISCID=3c050604
DTITLE=Robert Bradley's Blackwater Surprise - (LIVE) Authorized Bootleg
DYEAR=1997
DGENRE=Rock/Blues
TTITLE0=Big City Lady
TTITLE1=Governor
TTITLE2=Bellybone
TTITLE3=Trouble Brother
EXTD=
EXTT0=
EXTT1=
EXTT2=
EXTT3=
PLAYORDER=
